<?xml version="1.0" encoding="utf-8"?>
<!-- Generator: Adobe Illustrator 24.0.0, SVG Export Plug-In . SVG Version: 6.00 Build 0)  -->
<svg version="1.1" xmlns="http://www.w3.org/2000/svg" xmlns:xlink="http://www.w3.org/1999/xlink" x="0px" y="0px"
	 viewBox="0 0 512 512" style="enable-background:new 0 0 512 512;" xml:space="preserve">
<style type="text/css">
	.st0{fill:#1A1A1A;}
	.st1{fill:#808080;enable-background:new    ;}
</style>
<g id="Layer_2">
	<path class="st0" d="M144,512c-26.5,0-48-21.5-48-48l0,0V48c0-26.5,21.5-48,48-48h224c26.5,0,48,21.5,48,48v416
		c0,26.5-21.5,48-48,48l0,0H144z"/>
	<path class="st1" d="M32,277.3v8H8c-4.4,0-8,3.6-8,8v16c0,4.4,3.6,8,8,8h24v8c0,4.4,3.6,8,8,8h56v-64H40
		C35.6,269.3,32,272.9,32,277.3z"/>
	<path class="st1" d="M32,368v8H8c-4.4,0-8,3.6-8,8v16c0,4.4,3.6,8,8,8h24v8c0,4.4,3.6,8,8,8h56v-64H40C35.6,360,32,363.6,32,368z"
		/>
	<path class="st1" d="M32,96v8H8c-4.4,0-8,3.6-8,8v16c0,4.4,3.6,8,8,8h24v8c0,4.4,3.6,8,8,8h56V88H40C35.6,88,32,91.6,32,96z"/>
	<path class="st1" d="M32,186.7v8H8c-4.4,0-8,3.6-8,8v16c0,4.4,3.6,8,8,8h24v8c0,4.4,3.6,8,8,8h56v-64H40
		C35.6,178.7,32,182.2,32,186.7z"/>
	<path class="st1" d="M504,194.7h-24v-8c0-4.4-3.6-8-8-8h-56v64h56c4.4,0,8-3.6,8-8v-8h24c4.4,0,8-3.6,8-8v-16
		C512,198.2,508.4,194.7,504,194.7z"/>
	<path class="st1" d="M504,104h-24v-8c0-4.4-3.6-8-8-8h-56v64h56c4.4,0,8-3.6,8-8v-8h24c4.4,0,8-3.6,8-8v-16
		C512,107.6,508.4,104,504,104z"/>
	<path class="st1" d="M504,285.3h-24v-8c0-4.4-3.6-8-8-8h-56v64h56c4.4,0,8-3.6,8-8v-8h24c4.4,0,8-3.6,8-8v-16
		C512,288.9,508.4,285.3,504,285.3z"/>
	<path class="st1" d="M504,376h-24v-8c0-4.4-3.6-8-8-8h-56v64h56c4.4,0,8-3.6,8-8v-8h24c4.4,0,8-3.6,8-8v-16
		C512,379.6,508.4,376,504,376z"/>
</g>
<g id="Layer_1">
</g>
</svg>
